<?xml version="1.0" standalone="no"?><svg xmlns="http://www.w3.org/2000/svg" viewBox="0 0 1440 320"><path fill="#E4FAFC" fill-opacity="1" d="M0,128L40,138.7C80,149,160,171,240,165.3C320,160,400,128,480,117.3C560,107,640,117,720,138.7C800,160,880,192,960,213.3C1040,235,1120,245,1200,208C1280,171,1360,85,1400,42.7L1440,0L1440,320L1400,320C1360,320,1280,320,1200,320C1120,320,1040,320,960,320C880,320,800,320,720,320C640,320,560,320,480,320C400,320,320,320,240,320C160,320,80,320,40,320L0,320Z"></path></svg>